<?xml version="1.0" standalone="no"?>
<!DOCTYPE svg PUBLIC "-//W3C//DTD SVG 20010904//EN"
 "http://www.w3.org/TR/2001/REC-SVG-20010904/DTD/svg10.dtd">
<svg version="1.0" xmlns="http://www.w3.org/2000/svg"
 width="500.000000pt" height="500.000000pt" viewBox="0 0 500.000000 500.000000"
 preserveAspectRatio="xMidYMid meet">

<g transform="translate(0.000000,500.000000) scale(0.100000,-0.100000)"
fill="#000000" stroke="none">
<path d="M687 3434 c-4 -4 -7 -297 -7 -651 l0 -643 155 0 155 0 2 163 3 162
250 5 c236 5 252 6 293 28 61 33 120 95 151 161 26 56 26 58 26 291 0 233 0
236 -26 291 -33 70 -98 135 -169 168 l-55 26 -385 3 c-212 2 -389 0 -393 -4z
m721 -488 l-3 -161 -205 0 -205 0 -3 162 -2 163 197 2 c109 2 204 1 211 -1 10
-2 12 -41 10 -165z"/>
<path d="M1845 3428 c-3 -7 -4 -299 -3 -648 l3 -635 149 -3 c113 -2 152 1 158
10 5 7 8 220 8 473 -1 253 -1 466 -1 473 1 9 76 12 344 12 321 0 344 -1 374
-20 70 -42 67 -27 73 -510 l5 -435 153 -3 152 -3 0 443 c0 486 -1 496 -61 607
-62 119 -169 201 -304 236 -80 20 -1043 23 -1050 3z"/>
<path d="M3601 3420 c-91 -33 -148 -88 -193 -186 -23 -48 -23 -54 -23 -439 0
-363 1 -394 20 -443 26 -72 101 -153 167 -183 52 -24 59 -24 343 -24 284 0
291 0 343 24 66 30 144 113 166 177 24 71 24 817 0 888 -32 95 -138 181 -246
201 l-38 7 -2 -488 -3 -489 -220 0 -220 0 -3 323 -2 322 199 0 c150 0 200 3
202 13 2 6 3 81 1 165 l-3 152 -217 0 c-188 -1 -224 -3 -271 -20z"/>
<path d="M2410 2605 l0 -465 139 0 139 0 7 404 c4 222 4 431 0 465 l-7 61
-139 0 -139 0 0 -465z"/>
<path d="M1100 2423 c0 -5 47 -67 105 -139 l104 -131 107 -6 c144 -9 284 -9
284 1 0 4 -37 48 -81 97 -45 50 -100 111 -122 138 l-40 47 -179 0 c-98 0 -178
-3 -178 -7z"/>
<path d="M1525 1873 c-38 -8 -67 -27 -81 -54 -18 -36 -37 -246 -29 -334 10
-113 14 -125 40 -125 22 0 24 4 30 88 3 48 7 96 8 107 2 17 11 21 56 25 31 3
56 10 59 17 4 15 -38 33 -79 33 -29 0 -29 0 -29 63 0 99 10 107 129 107 74 0
102 4 111 15 16 20 5 33 -38 44 -47 12 -151 20 -177 14z"/>
<path d="M3669 1843 c-6 -16 -16 -58 -22 -95 -11 -65 -12 -67 -37 -61 -90 25
-170 -38 -191 -152 -14 -76 -4 -130 28 -155 46 -36 135 -19 172 33 16 22 16
22 21 -13 4 -29 9 -35 30 -35 23 0 26 4 32 60 9 82 12 420 4 434 -12 19 -26
12 -37 -16z m-47 -240 c13 -12 18 -31 18 -74 0 -55 -2 -59 -42 -94 -72 -61
-120 -59 -126 6 -5 50 14 104 52 144 37 38 69 45 98 18z"/>
<path d="M2916 1689 c-84 -14 -163 -152 -137 -239 6 -21 20 -49 32 -64 19 -24
27 -26 90 -26 39 0 79 5 91 11 57 31 81 213 36 279 -26 39 -56 49 -112 39z
m83 -191 c-15 -48 -45 -75 -89 -83 -52 -9 -75 12 -75 69 0 66 35 99 113 106
l57 5 3 -30 c2 -16 -2 -47 -9 -67z"/>
<path d="M2219 1667 c-20 -13 -46 -45 -62 -77 -35 -68 -35 -147 2 -198 22 -31
25 -32 94 -32 84 0 110 13 132 67 23 56 20 183 -6 227 -20 34 -24 36 -74 36
-37 0 -62 -6 -86 -23z m136 -153 c-13 -71 -93 -122 -145 -94 -31 16 -28 99 4
137 20 23 34 29 82 33 56 5 59 4 62 -19 2 -13 1 -39 -3 -57z"/>
</g>
</svg>
